HIERARCHY
ROOT Spine
{
    OFFSET 0.0 0.0 -0.0
    CHANNELS 6 Xposition Yposition Zposition Zrotation Xrotation Yrotation
    JOINT ShoulderCenter
    {
        OFFSET 0.0 32.61629867553711 0.0
        CHANNELS 3 Zrotation Xrotation Yrotation
        JOINT LeftShoulder
        {
            OFFSET 18.403051376342773 0.0 0.0
            CHANNELS 3 Zrotation Xrotation Yrotation
            JOINT LeftElbow
            {
                OFFSET 32.475563049316406 0.0 0.0
                CHANNELS 3 Zrotation Xrotation Yrotation
                JOINT LeftHand
                {
                    OFFSET 33.721839904785156 0.0 0.0
                    CHANNELS 3 Zrotation Xrotation Yrotation
                    End Site
                    {
                        OFFSET 13.488736152648926 0.0 0.0
                    }
                }
            }
        }
        JOINT RightShoulder
        {
            OFFSET -18.403051376342773 0.0 0.0
            CHANNELS 3 Zrotation Xrotation Yrotation
            JOINT RightElbow
            {
                OFFSET -32.475563049316406 0.0 0.0
                CHANNELS 3 Zrotation Xrotation Yrotation
                JOINT RightHand
                {
                    OFFSET -33.721839904785156 0.0 0.0
                    CHANNELS 3 Zrotation Xrotation Yrotation
                    End Site
                    {
                        OFFSET -13.488736152648926 0.0 0.0
                    }
                }
            }
        }
        End Site
        {
            OFFSET 0.0 13.046518325805664 0.0
        }
    }
    JOINT LeftHip
    {
        OFFSET 17.1120075720797 -17.1120075720797 0.0
        CHANNELS 3 Zrotation Xrotation Yrotation
        JOINT LeftKnee
        {
            OFFSET 0.0 -42.4261474609375 0.0
            CHANNELS 3 Zrotation Xrotation Yrotation
            JOINT LeftFoot
            {
                OFFSET 0.0 -47.43170928955078 0.0
                CHANNELS 3 Zrotation Xrotation Yrotation
                End Site
                {
                    OFFSET 0.0 0.0 18.972684860229492
                }
            }
        }
    }
    JOINT RightHip
    {
        OFFSET -17.1120075720797 -17.1120075720797 0.0
        CHANNELS 3 Zrotation Xrotation Yrotation
        JOINT RightKnee
        {
            OFFSET 0.0 -42.4261474609375 0.0
            CHANNELS 3 Zrotation Xrotation Yrotation
            JOINT RightFoot
            {
                OFFSET 0.0 -47.43170928955078 0.0
                CHANNELS 3 Zrotation Xrotation Yrotation
                End Site
                {
                    OFFSET 0.0 0.0 18.972684860229492
                }
            }
        }
    }
}
MOTION
Frames: 9
Frame Time: 0.03333333333333333
-5.5 13.600000381469727 20.80000114440918 -3.6970490269903733 -4.389590432021888 -3.1425438682090205 -3.504855154123141e-07 -1.8510738829205878e-07 -3.149695018526757 147.90854343194698 3.8638789693397917 -171.06112432538865 3.0021232451780954e-06 3.031396119952103e-07 112.4843401479573 0.0 0.0 0.0 -146.401836508895 37.65569629985515 172.560732579355 1.6759705695390945e-06 -2.2601685430112332e-06 -119.4157708381896 -6.3611093629270335e-15 -3.1805546814635164e-15 -6.3611093629270335e-15 18.09569807580858 -1.8058480452677554 -42.94030646099248 -6.517182228942113 13.22617008456453 -39.67075457531492 7.951386703658794e-16 -7.951386703658794e-16 2.584200678689108e-15 -2.7112070012485354 -1.1131904896605984 22.438676855061363 -4.004908585790426 11.018154358932469 37.91548910953621 -1.5902773407317584e-15 7.951386703658792e-16 8.945310041616142e-16
-5.400000095367432 13.40000057220459 20.5 -2.985113191790897 -3.8555114272532407 -3.060177492611552 1.7244452597424724e-07 2.0347374943271438e-07 -3.699682486852863 145.95333617833174 0.187507032507122 -170.7720293134853 -1.499929621905881e-07 9.14970009258786e-07 106.64992629754862 0.0 -3.1805546814635168e-15 0.0 -144.48136282446205 32.19613922759203 172.59560784531445 4.874218095135945e-06 2.724695383727185e-06 -116.80313297553732 0.0 0.0 0.0 16.987459220259495 -1.9720306418140323 -41.5931770868732 -4.924550098546133 12.905829913555424 -41.12170705396001 1.5902773407317584e-15 -7.951386703658792e-16 -3.776908684237926e-15 -3.6406118801230165 -2.389624604427302 19.87456238850241 -3.9066784083821213 11.382774750897832 39.55557878721787 0.0 0.0 3.975693351829396e-16
-5.299999713897705 13.09999942779541 20.100000381469727 -2.459043626722065 -3.507457340652815 -2.949447763040388 1.1264487782519762e-07 -2.7869986576581886e-07 -3.832212843430555 145.03203918222107 -1.9535359876613498 -169.4147104927125 -5.356545033579661e-07 -2.691195159150326e-07 101.30654615615065 -3.1805546814635168e-15 -1.7655625192200634e-31 6.3611093629270335e-15 -143.45574284554587 27.18676980116976 171.95755407597605 5.027289046814588e-06 2.309053564924153e-06 -112.4968427150944 0.0 0.0 0.0 16.044754101030694 -1.8329189459632635 -41.32397454201989 -3.41824762448795 12.59859164411686 -43.68708441223743 0.0 0.0 7.95138670365879e-16 -3.8105952729356476 -3.9687067319149496 14.141362114001064 -5.293618961763425 12.477135768583965 44.87318332324911 -1.5902773407317582e-15 1.9310840053969444e-32 -1.3914926731402884e-15
-5.099999904632568 13.09999942779541 19.69999885559082 -2.1080951206670036 -3.5083051621483667 -2.630601902860466 -3.86605650357724e-09 -3.3566453426125573e-07 -3.8385477866055653 145.1021447403656 -3.3623673413028206 -167.90376234777565 2.378552196677613e-06 -4.5489567225882055e-07 96.63130118664846 3.1805546814635168e-15 3.1805546814635168e-15 6.3611093629270335e-15 -143.47285893491267 22.33992915943317 171.33139584592564 -2.060312292096807e-06 1.7791499198732088e-06 -107.64774225217677 6.3611093629270335e-15 0.0 0.0 15.513399265588731 -1.5262506858858529 -40.64874270514684 -2.2255542530992556 11.669078874864134 -44.17942502399592 3.1805546814635164e-15 3.862168010793889e-32 1.3914926731402884e-15 -4.003916121887353 -4.770689630878616 10.375810290259324 -6.451808550615882 13.233428513368697 49.76083192454791 1.5902773407317584e-15 5.517382872562698e-33 3.975693351829396e-16
-5.0 13.199999809265137 19.400001525878906 -2.4590444282166275 -2.807225541281622 -1.0433755771761835 -6.374244417111836e-08 2.9152612130525323e-07 -4.482144388086533 146.30639966700045 -3.7269357492466733 -166.13939832160085 -5.193458642842358e-06 1.0176331623025672e-06 93.33076456815989 3.1805546814635168e-15 3.1805546814635168e-15 6.3611093629270335e-15 -142.5616708731629 18.890851663094136 170.104520071775 -1.9565055146296721e-07 -2.571570484767388e-06 -102.63867689630037 6.3611093629270335e-15 3.531125038440127e-31 6.3611093629270335e-15 15.998997217424423 -2.898962931375932 -35.762740963447555 -1.0363170538480262 11.320972576283765 -48.4798466492294 -1.5902773407317584e-15 1.5902773407317584e-15 2.2069531490250793e-32 -3.5103488383371415 -5.07740647784021 10.350759856199835 -6.810504728278776 12.892447845309649 49.682568137033684 -1.5902773407317584e-15 -5.517382872562698e-33 3.975693351829396e-16
-4.800000190734863 13.40000057220459 19.100000381469727 -2.1080960039698766 -2.632670466331511 0.5539970042758595 1.8637369475971296e-07 -7.076310992022057e-08 -4.33035753911993 147.397879611543 -4.221038420756004 -165.59477358895134 1.8500620988763772e-06 5.590441786692987e-07 91.85286679574007 0.0 0.0 0.0 -142.98191559678784 15.736612778260037 169.59778463716336 1.039127929028986e-06 -5.734656262420528e-07 -98.88093742237889 -3.1805546814635164e-15 2.7829853462805764e-15 6.361109362927033e-15 15.817952783438171 -3.8951616821682267 -31.05592056151798 -0.41725685035071247 10.754431366979972 -50.91043876453738 1.5902773407317584e-15 -1.5902773407317584e-15 -7.951386703658792e-16 -4.1361685937066035 -4.74018623797917 11.711551937397333 -6.370661510359498 12.492602025658133 48.44114295876423 -1.5902773407317582e-15 -7.951386703658791e-16 9.939233379573488e-16
-4.699999809265137 13.600000381469727 19.0 -2.108095189230394 -2.4573812972937046 2.4801600948552385 7.07811497529059e-08 3.330364664663614e-08 -3.5868993207922517 148.77440983469882 -4.193296405687345 -165.78099387279346 -6.691687886205274e-07 1.4483150828389269e-06 91.16961226389863 0.0 3.1805546814635168e-15 0.0 -143.35217239973855 12.80367128347214 169.4910183555875 -2.6642914596815845e-07 -1.0656284931046452e-08 -96.3118791448891 3.1805546814635176e-15 -7.951386703658792e-16 6.361109362927035e-15 15.81202926147739 -5.1354168616431615 -19.324937754990625 1.74998364867943 10.48086673637308 -61.38908287026383 0.0 0.0 1.1927080055488188e-15 -4.274354389227513 -4.094670542663676 12.100330022354767 -6.462782019325761 11.69998953123043 46.9947375218969 -1.5902773407317584e-15 7.951386703658791e-16 5.168401357378215e-15
-4.599999904632568 13.699999809265137 18.799999237060547 -2.108095171272155 -2.1066679173075333 5.045023746816351 1.717831342738203e-07 5.905052059430799e-08 -2.853160450094608 150.25054709880888 -3.1897249489355666 -166.4841054488966 -1.903850629071898e-06 3.3240865149422633e-07 91.55513289803613 -3.1805546814635164e-15 0.0 0.0 -143.96005799026796 10.64274624126469 168.8832900552568 1.3255925587171535e-06 5.634119507242884e-07 -94.3034736016842 -3.1805546814635168e-15 1.5902773407317584e-15 4.4139062980501586e-32 15.806881463168182 -6.596708839232387 -9.135151864756251 3.2524060903372556 9.836868125774224 -69.0237588428491 -3.1805546814635168e-15 -1.6552148617688095e-32 5.963540027744094e-16 -4.25264981774002 -3.298008957846361 14.86842071634809 -6.164174764379633 11.018246755176675 43.195396606700555 2.758691436281349e-32 7.95138670365879e-16 -3.975693351829395e-15
-4.599999904632568 13.799999237060547 18.700000762939453 -2.108095142471471 -1.9312537498802256 7.637264731906477 7.71469545358637e-08 1.252626486554388e-07 -1.3411076958147496 151.79158602174593 -2.2810187553105163 -166.6880025616137 -2.2903867184008774e-06 -6.114824080199468e-07 90.93460526657736 -3.1805546814635164e-15 1.7655625192200634e-31 -6.361109362927033e-15 -144.86733732619123 8.499876503750103 168.26059514306283 -1.2801754063422985e-06 -1.530020741153219e-06 -93.11000442076686 3.1805546814635168e-15 0.0 0.0 15.720391317725497 -7.905219609033313 3.0516812742984563 4.781083517770888 8.783846891451237 -73.98382317840351 -1.5902773407317584e-15 7.951386703658791e-16 8.150171371250262e-15 -4.334045641165868 -2.7246818378323785 16.525123004770617 -6.164580501844428 10.951869191509227 44.39402479350912 -1.5902773407317582e-15 7.951386703658791e-16 1.3914926731402884e-15
